<svg xmlns="http://www.w3.org/2000/svg" xmlns:xlink="http://www.w3.org/1999/xlink" width="397" zoomAndPan="magnify" viewBox="0 0 297.75 297.749993" height="397" preserveAspectRatio="xMidYMid meet" version="1.0"><defs><clipPath id="155b33ee04"><path d="M 0 20 L 296.75 20 L 296.75 277 L 0 277 Z M 0 20 " clip-rule="nonzero"/></clipPath></defs><g clip-path="url(#155b33ee04)"><path fill="#3a8af5" d="M 148.527344 276.824219 C 146.410156 276.824219 144.410156 275.859375 143.085938 274.207031 C 127.382812 254.558594 101.246094 236.375 17.074219 236.375 C 7.34375 236.375 0 228.511719 0 218.085938 L 0 37.296875 C 0 27.867188 7.644531 20.222656 17.035156 20.222656 C 89.316406 20.546875 130.949219 35.582031 148.523438 68.457031 C 166.09375 35.582031 207.71875 20.546875 279.941406 20.222656 C 289.402344 20.222656 297.042969 27.863281 297.042969 37.257812 L 297.042969 219.300781 C 297.042969 228.71875 289.386719 236.375 279.96875 236.375 C 195.816406 236.375 169.675781 254.554688 153.957031 274.207031 C 152.640625 275.859375 150.640625 276.824219 148.527344 276.824219 Z M 17.046875 34.144531 C 15.320312 34.144531 13.925781 35.542969 13.925781 37.257812 L 13.925781 218.082031 C 13.925781 219.109375 14.152344 222.453125 17.074219 222.453125 C 84.699219 222.453125 123.726562 233.222656 148.527344 259.277344 C 173.339844 233.222656 212.363281 222.453125 279.972656 222.453125 C 281.710938 222.453125 283.121094 221.042969 283.121094 219.304688 L 283.121094 37.296875 C 283.121094 35.539062 281.726562 34.144531 280.011719 34.144531 C 203.363281 34.488281 164.894531 51.578125 155.273438 89.5625 C 154.488281 92.648438 151.707031 94.8125 148.523438 94.8125 C 145.335938 94.8125 142.558594 92.648438 141.773438 89.5625 C 132.15625 51.578125 93.683594 34.488281 17.046875 34.144531 Z M 17.046875 34.144531 " fill-opacity="1" fill-rule="evenodd"/></g><path fill="#3a8af5" d="M 148.527344 276.824219 C 144.683594 276.824219 141.5625 273.707031 141.5625 269.859375 L 141.5625 132.355469 C 141.5625 128.511719 144.683594 125.394531 148.527344 125.394531 C 152.371094 125.394531 155.488281 128.511719 155.488281 132.355469 L 155.488281 269.859375 C 155.488281 273.707031 152.371094 276.824219 148.527344 276.824219 Z M 148.527344 276.824219 " fill-opacity="1" fill-rule="evenodd"/></svg>