<svg xmlns="http://www.w3.org/2000/svg" xmlns:xlink="http://www.w3.org/1999/xlink" width="431" zoomAndPan="magnify" viewBox="0 0 323.25 297.749991" height="397" preserveAspectRatio="xMidYMid meet" version="1.0"><defs><clipPath id="74fe2ec3fa"><path d="M 171 122 L 298 122 L 298 296.53125 L 171 296.53125 Z M 171 122 " clip-rule="nonzero"/></clipPath><clipPath id="a0c925627c"><path d="M 0 0.21875 L 321.753906 0.21875 L 321.753906 232 L 0 232 Z M 0 0.21875 " clip-rule="nonzero"/></clipPath></defs><g clip-path="url(#74fe2ec3fa)"><path fill="#3a8af5" d="M 172.285156 279.746094 C 173.539062 281.003906 175.546875 281.753906 177.304688 281.253906 L 200.160156 275.476562 L 214.226562 294.5625 C 215.230469 295.820312 216.738281 296.574219 218.242188 296.574219 C 218.496094 296.574219 218.746094 296.574219 218.996094 296.574219 C 220.753906 296.324219 222.261719 295.066406 223.015625 293.308594 L 228.539062 277.234375 L 223.265625 261.914062 L 216.738281 281.003906 L 206.441406 266.6875 C 205.433594 265.429688 203.929688 264.679688 202.421875 264.679688 C 201.917969 264.679688 201.667969 264.679688 201.164062 264.929688 L 184.339844 269.199219 L 199.40625 226 C 199.910156 226.253906 200.664062 226.503906 200.914062 227.003906 C 202.171875 228.011719 203.425781 229.515625 204.933594 231.273438 C 207.445312 234.539062 210.457031 238.308594 215.230469 239.8125 C 218.996094 241.070312 222.765625 240.316406 226.28125 239.5625 L 245.117188 293.558594 C 245.617188 295.316406 247.375 296.574219 249.132812 296.824219 C 249.386719 296.824219 249.636719 296.824219 249.886719 296.824219 C 251.394531 296.824219 252.902344 296.070312 253.90625 294.816406 L 267.96875 275.726562 L 290.824219 281.503906 C 292.582031 282.007812 294.59375 281.503906 295.847656 279.996094 C 297.105469 278.492188 297.605469 276.734375 296.851562 274.976562 L 281.785156 231.527344 L 281.53125 231.023438 L 278.519531 221.984375 C 280.527344 220.976562 282.539062 219.472656 284.296875 217.210938 C 287.058594 213.445312 287.308594 208.671875 287.558594 204.652344 C 287.558594 202.394531 287.8125 200.132812 288.3125 198.625 C 288.816406 197.121094 289.820312 195.359375 291.078125 193.601562 C 293.335938 190.085938 296.097656 186.070312 296.097656 181.296875 C 296.097656 176.523438 293.585938 172.253906 291.078125 168.992188 C 289.820312 167.234375 288.816406 165.476562 288.3125 163.96875 C 287.8125 162.460938 287.8125 160.199219 287.558594 157.941406 C 287.308594 153.921875 287.058594 149.148438 284.296875 145.382812 C 281.53125 141.363281 277.011719 139.859375 273.246094 138.351562 C 271.234375 137.597656 269.226562 136.84375 267.71875 135.839844 C 266.464844 134.835938 265.207031 133.328125 263.699219 131.570312 C 261.191406 128.304688 258.175781 124.539062 253.402344 123.03125 C 248.882812 121.523438 244.363281 122.78125 240.59375 123.785156 C 238.335938 124.285156 236.324219 125.039062 234.566406 125.039062 C 232.808594 125.039062 230.800781 124.539062 228.539062 123.785156 C 224.523438 122.78125 220 121.523438 215.730469 123.03125 C 210.960938 124.539062 208.199219 128.304688 205.433594 131.570312 C 203.929688 133.328125 202.671875 135.085938 201.417969 135.839844 C 200.160156 136.84375 198.152344 137.597656 195.890625 138.351562 C 192.125 139.859375 187.605469 141.363281 184.839844 145.382812 C 182.078125 149.148438 181.828125 153.921875 181.574219 157.941406 C 181.574219 160.199219 181.324219 162.460938 180.824219 163.96875 C 180.320312 165.476562 179.316406 167.234375 178.058594 168.992188 C 175.800781 172.507812 173.035156 176.523438 173.035156 181.296875 C 173.035156 186.070312 175.546875 190.339844 178.058594 193.601562 C 179.316406 195.359375 180.320312 197.121094 180.824219 198.625 C 181.324219 200.132812 181.324219 202.394531 181.574219 204.652344 C 181.828125 208.671875 182.078125 213.445312 184.839844 217.210938 C 186.347656 219.21875 188.355469 220.726562 190.617188 221.984375 L 187.605469 230.773438 L 186.347656 231.273438 L 171.277344 274.722656 C 170.777344 276.480469 171.027344 278.238281 172.285156 279.746094 Z M 283.792969 269.199219 L 266.964844 264.929688 C 264.957031 264.425781 262.949219 265.179688 261.691406 266.9375 L 251.394531 281.253906 L 236.324219 238.308594 C 237.582031 238.558594 238.835938 238.808594 240.09375 239.3125 C 242.855469 240.066406 245.617188 240.820312 248.632812 240.820312 C 250.140625 240.820312 251.644531 240.566406 253.152344 240.066406 C 257.925781 238.558594 260.6875 234.792969 263.449219 231.527344 C 264.957031 229.769531 266.210938 228.011719 267.46875 227.257812 C 267.96875 227.003906 268.472656 226.503906 268.976562 226.253906 Z M 189.613281 195.359375 C 188.609375 192.597656 187.101562 190.085938 185.59375 187.828125 C 183.835938 185.316406 182.328125 182.804688 182.328125 181.046875 C 182.328125 179.289062 183.835938 176.777344 185.59375 174.265625 C 187.101562 172.003906 188.609375 169.492188 189.613281 166.730469 C 190.617188 163.96875 190.617188 160.953125 190.867188 158.191406 C 191.121094 155.175781 191.121094 152.414062 192.125 150.90625 C 193.128906 149.402344 195.890625 148.398438 198.652344 147.390625 C 201.417969 146.386719 203.929688 145.382812 206.441406 143.625 C 208.949219 141.867188 210.710938 139.605469 212.46875 137.347656 C 214.226562 135.085938 216.234375 132.824219 217.992188 132.070312 C 219.75 131.570312 222.511719 132.324219 225.277344 133.078125 C 228.039062 133.832031 231.050781 134.582031 234.066406 134.582031 C 237.078125 134.582031 240.09375 133.832031 242.855469 133.078125 C 245.617188 132.324219 248.382812 131.570312 250.140625 132.070312 C 251.898438 132.574219 253.65625 134.835938 255.664062 137.347656 C 257.421875 139.605469 259.179688 141.867188 261.691406 143.625 C 264.203125 145.382812 266.964844 146.386719 269.476562 147.390625 C 272.238281 148.398438 275.003906 149.402344 276.007812 150.90625 C 277.011719 152.414062 277.261719 155.175781 277.261719 158.191406 C 277.515625 160.953125 277.515625 163.96875 278.519531 166.980469 C 279.523438 169.746094 281.03125 172.253906 282.539062 174.515625 C 284.296875 177.027344 285.800781 179.539062 285.800781 181.296875 C 285.800781 183.054688 284.296875 185.566406 282.539062 188.078125 C 281.03125 190.339844 279.523438 192.851562 278.519531 195.613281 C 277.515625 198.375 277.515625 201.390625 277.261719 204.152344 C 277.011719 207.164062 277.011719 209.929688 276.007812 211.433594 C 275.003906 212.941406 272.238281 213.945312 269.476562 214.949219 C 266.714844 215.957031 264.203125 216.960938 261.691406 218.71875 C 259.179688 220.476562 257.421875 222.734375 255.664062 224.996094 C 253.90625 227.257812 251.898438 229.515625 250.140625 230.269531 C 248.382812 230.773438 245.617188 230.019531 242.855469 229.265625 C 240.09375 228.511719 237.078125 227.757812 234.066406 227.757812 C 231.050781 227.757812 228.039062 228.511719 225.277344 229.265625 C 222.511719 230.019531 219.75 230.773438 217.992188 230.269531 C 216.234375 229.769531 214.476562 227.507812 212.46875 224.996094 C 210.710938 222.734375 208.949219 220.476562 206.441406 218.71875 C 203.929688 216.960938 201.164062 215.957031 198.652344 214.949219 C 195.890625 213.945312 193.128906 212.941406 192.125 211.433594 C 191.121094 209.929688 190.867188 207.164062 190.867188 204.152344 C 190.617188 201.136719 190.617188 198.375 189.613281 195.359375 Z M 189.613281 195.359375 " fill-opacity="1" fill-rule="nonzero"/></g><path fill="#3a8af5" d="M 233.816406 216.207031 C 253.152344 216.207031 268.976562 200.382812 268.976562 181.046875 C 268.976562 161.707031 253.152344 145.886719 233.816406 145.886719 C 214.476562 145.886719 198.652344 161.707031 198.652344 181.046875 C 198.652344 200.382812 214.476562 216.207031 233.816406 216.207031 Z M 233.816406 155.929688 C 247.628906 155.929688 258.929688 167.234375 258.929688 181.046875 C 258.929688 194.859375 247.628906 206.160156 233.816406 206.160156 C 220 206.160156 208.699219 194.859375 208.699219 181.046875 C 208.699219 167.234375 220 155.929688 233.816406 155.929688 Z M 233.816406 155.929688 " fill-opacity="1" fill-rule="nonzero"/><path fill="#3a8af5" d="M 95.683594 60.496094 C 92.921875 60.496094 90.660156 62.753906 90.660156 65.519531 C 90.660156 68.28125 92.921875 70.542969 95.683594 70.542969 L 226.28125 70.542969 C 229.042969 70.542969 231.304688 68.28125 231.304688 65.519531 C 231.304688 62.753906 229.042969 60.496094 226.28125 60.496094 Z M 95.683594 60.496094 " fill-opacity="1" fill-rule="nonzero"/><path fill="#3a8af5" d="M 225.023438 90.632812 C 225.023438 87.871094 222.765625 85.609375 220 85.609375 L 101.960938 85.609375 C 99.199219 85.609375 96.9375 87.871094 96.9375 90.632812 C 96.9375 93.394531 99.199219 95.65625 101.960938 95.65625 L 220 95.65625 C 222.765625 95.65625 225.023438 93.394531 225.023438 90.632812 Z M 225.023438 90.632812 " fill-opacity="1" fill-rule="nonzero"/><path fill="#3a8af5" d="M 35.410156 52.960938 C 45.203125 52.960938 52.988281 45.175781 52.988281 35.378906 C 52.988281 25.585938 45.203125 17.800781 35.410156 17.800781 C 25.613281 17.800781 17.828125 25.585938 17.828125 35.378906 C 17.828125 45.175781 25.613281 52.960938 35.410156 52.960938 Z M 35.410156 27.847656 C 39.679688 27.847656 42.941406 31.109375 42.941406 35.378906 C 42.941406 39.648438 39.679688 42.914062 35.410156 42.914062 C 31.140625 42.914062 27.875 39.648438 27.875 35.378906 C 27.875 31.109375 31.140625 27.847656 35.410156 27.847656 Z M 35.410156 27.847656 " fill-opacity="1" fill-rule="nonzero"/><path fill="#3a8af5" d="M 35.410156 211.183594 C 45.203125 211.183594 52.988281 203.398438 52.988281 193.601562 C 52.988281 183.808594 45.203125 176.023438 35.410156 176.023438 C 25.613281 176.023438 17.828125 183.808594 17.828125 193.601562 C 17.828125 203.398438 25.613281 211.183594 35.410156 211.183594 Z M 35.410156 186.070312 C 39.679688 186.070312 42.941406 189.332031 42.941406 193.601562 C 42.941406 197.871094 39.679688 201.136719 35.410156 201.136719 C 31.140625 201.136719 27.875 197.871094 27.875 193.601562 C 27.875 189.332031 31.140625 186.070312 35.410156 186.070312 Z M 35.410156 186.070312 " fill-opacity="1" fill-rule="nonzero"/><path fill="#3a8af5" d="M 304.136719 35.378906 C 304.136719 25.585938 296.351562 17.800781 286.554688 17.800781 C 276.761719 17.800781 268.976562 25.585938 268.976562 35.378906 C 268.976562 45.175781 276.761719 52.960938 286.554688 52.960938 C 296.351562 52.960938 304.136719 45.175781 304.136719 35.378906 Z M 279.019531 35.378906 C 279.019531 31.109375 282.285156 27.847656 286.554688 27.847656 C 290.824219 27.847656 294.089844 31.109375 294.089844 35.378906 C 294.089844 39.648438 290.824219 42.914062 286.554688 42.914062 C 282.285156 42.914062 279.019531 39.648438 279.019531 35.378906 Z M 279.019531 35.378906 " fill-opacity="1" fill-rule="nonzero"/><g clip-path="url(#a0c925627c)"><path fill="#3a8af5" d="M 306.648438 0.21875 L 15.316406 0.21875 C 7.027344 0.21875 0.246094 7 0.246094 15.289062 L 0.246094 216.207031 C 0.246094 224.496094 7.027344 231.273438 15.316406 231.273438 L 175.800781 231.273438 L 177.808594 225.246094 C 177.054688 224.496094 176.300781 223.742188 175.800781 222.988281 C 175.296875 222.484375 175.046875 221.730469 174.796875 221.230469 L 15.316406 221.230469 C 12.554688 221.230469 10.292969 218.96875 10.292969 216.207031 L 10.292969 15.289062 C 10.292969 12.527344 12.554688 10.265625 15.316406 10.265625 L 306.648438 10.265625 C 309.410156 10.265625 311.671875 12.527344 311.671875 15.289062 L 311.671875 216.207031 C 311.671875 218.96875 309.410156 221.230469 306.648438 221.230469 L 292.835938 221.230469 C 292.582031 221.984375 292.082031 222.484375 291.578125 223.238281 C 291.074219 223.992188 290.324219 224.746094 289.570312 225.5 L 291.578125 231.527344 L 306.394531 231.527344 C 314.683594 231.527344 321.464844 224.746094 321.464844 216.457031 L 321.464844 15.289062 C 321.714844 7 314.933594 0.21875 306.648438 0.21875 Z M 306.648438 0.21875 " fill-opacity="1" fill-rule="nonzero"/></g><path fill="#3a8af5" d="M 63.035156 192.097656 C 63.035156 192.097656 63.035156 192.347656 63.035156 192.347656 C 63.035156 192.347656 63.035156 192.597656 63.035156 192.597656 C 63.035156 192.851562 63.035156 192.851562 63.035156 193.101562 C 63.035156 193.351562 63.035156 193.351562 63.035156 193.601562 C 63.035156 193.855469 63.035156 193.855469 63.285156 194.105469 C 63.285156 194.355469 63.285156 194.355469 63.535156 194.609375 C 63.535156 194.859375 63.789062 194.859375 63.789062 195.109375 C 63.789062 195.359375 64.039062 195.359375 64.039062 195.613281 C 64.039062 195.863281 64.289062 195.863281 64.289062 196.113281 C 64.289062 196.113281 64.542969 196.367188 64.542969 196.367188 C 64.542969 196.367188 64.792969 196.617188 65.042969 196.617188 C 65.042969 196.617188 65.292969 196.867188 65.546875 196.867188 C 65.796875 196.867188 65.796875 197.121094 66.046875 197.121094 C 66.300781 197.121094 66.300781 197.371094 66.550781 197.371094 C 66.800781 197.371094 66.800781 197.371094 67.054688 197.621094 C 67.304688 197.621094 67.304688 197.621094 67.554688 197.621094 C 67.554688 197.621094 67.804688 197.621094 67.804688 197.621094 C 68.058594 197.621094 68.308594 197.621094 68.308594 197.621094 L 168.765625 197.621094 C 168.265625 196.867188 168.015625 196.113281 167.511719 195.359375 C 166.003906 192.851562 164.496094 190.339844 163.492188 187.574219 L 72.828125 187.574219 C 71.070312 171.503906 58.765625 158.945312 42.941406 156.683594 L 42.941406 72.550781 C 58.765625 70.289062 71.070312 57.480469 72.828125 41.660156 L 249.132812 41.660156 C 250.894531 57.734375 263.199219 70.289062 279.019531 72.550781 L 279.019531 130.3125 C 279.273438 130.3125 279.273438 130.566406 279.523438 130.566406 C 282.789062 132.070312 286.304688 133.578125 289.066406 136.089844 L 289.066406 68.03125 C 289.066406 65.265625 286.808594 63.007812 284.042969 63.007812 C 270.230469 63.007812 258.929688 51.703125 258.929688 37.890625 C 258.929688 37.640625 258.929688 37.390625 258.929688 37.136719 C 258.929688 37.136719 258.929688 36.886719 258.929688 36.886719 C 258.929688 36.886719 258.929688 36.636719 258.929688 36.636719 C 258.929688 36.636719 258.929688 36.386719 258.929688 36.386719 C 258.929688 36.132812 258.929688 36.132812 258.929688 35.882812 C 258.929688 35.632812 258.929688 35.632812 258.929688 35.378906 C 258.929688 35.128906 258.929688 35.128906 258.679688 34.878906 C 258.679688 34.628906 258.679688 34.628906 258.425781 34.375 C 258.425781 34.125 258.175781 34.125 258.175781 33.875 C 258.175781 33.621094 257.925781 33.621094 257.925781 33.371094 C 257.925781 33.121094 257.671875 33.121094 257.671875 32.867188 C 257.671875 32.867188 257.421875 32.617188 257.421875 32.617188 C 257.421875 32.617188 257.171875 32.367188 256.921875 32.367188 C 256.921875 32.367188 256.667969 32.117188 256.417969 32.117188 C 256.167969 32.117188 256.167969 31.863281 255.914062 31.863281 C 255.664062 31.863281 255.664062 31.613281 255.414062 31.613281 C 255.164062 31.613281 255.164062 31.613281 254.910156 31.363281 C 254.660156 31.363281 254.660156 31.363281 254.410156 31.363281 C 254.410156 31.363281 254.15625 31.363281 254.15625 31.363281 C 254.15625 31.363281 253.90625 31.363281 253.90625 31.363281 C 253.90625 31.363281 253.65625 31.363281 253.65625 31.363281 L 68.058594 31.363281 C 68.058594 31.363281 67.804688 31.363281 67.804688 31.363281 C 67.804688 31.363281 67.554688 31.363281 67.554688 31.363281 C 67.554688 31.363281 67.304688 31.363281 67.304688 31.363281 C 67.054688 31.363281 67.054688 31.363281 66.800781 31.363281 C 66.550781 31.363281 66.550781 31.363281 66.300781 31.613281 C 66.046875 31.613281 66.046875 31.863281 65.796875 31.863281 C 65.546875 31.863281 65.546875 32.117188 65.292969 32.117188 C 65.042969 32.117188 65.042969 32.367188 64.792969 32.367188 C 64.542969 32.367188 64.542969 32.617188 64.289062 32.617188 C 64.289062 32.617188 64.039062 32.867188 64.039062 32.867188 C 64.039062 32.867188 63.789062 33.121094 63.789062 33.371094 C 63.789062 33.621094 63.535156 33.621094 63.535156 33.875 C 63.535156 34.125 63.285156 34.125 63.285156 34.375 C 63.285156 34.628906 63.285156 34.628906 63.035156 34.878906 C 63.035156 35.128906 63.035156 35.128906 62.785156 35.378906 C 62.785156 35.632812 62.785156 35.632812 62.785156 35.882812 C 62.785156 36.132812 62.785156 36.132812 62.785156 36.386719 C 62.785156 36.386719 62.785156 36.636719 62.785156 36.636719 C 62.785156 36.636719 62.785156 36.886719 62.785156 36.886719 C 62.785156 36.886719 62.785156 37.136719 62.785156 37.136719 C 62.785156 37.390625 62.785156 37.640625 62.785156 37.890625 C 62.785156 51.703125 51.480469 63.007812 37.667969 63.007812 C 34.90625 63.007812 32.644531 65.265625 32.644531 68.03125 L 32.644531 160.953125 C 32.644531 163.714844 34.90625 165.976562 37.667969 165.976562 C 51.480469 165.976562 62.785156 177.277344 62.785156 191.089844 C 62.785156 191.34375 62.785156 191.59375 62.785156 191.84375 C 63.035156 191.84375 63.035156 191.84375 63.035156 192.097656 Z M 63.035156 192.097656 " fill-opacity="1" fill-rule="nonzero"/></svg>