<svg xmlns="http://www.w3.org/2000/svg" xmlns:xlink="http://www.w3.org/1999/xlink" width="1154" zoomAndPan="magnify" viewBox="0 0 865.5 442.499987" height="590" preserveAspectRatio="xMidYMid meet" version="1.0"><defs><clipPath id="ed7e8e5d5e"><path d="M 0.238281 3 L 864.761719 3 L 864.761719 442 L 0.238281 442 Z M 0.238281 3 " clip-rule="nonzero"/></clipPath><clipPath id="472ed5fabb"><path d="M 0.238281 0.117188 L 864.460938 0.117188 L 864.460938 438.867188 L 0.238281 438.867188 Z M 0.238281 0.117188 " clip-rule="nonzero"/></clipPath><clipPath id="a6b264b572"><rect x="0" width="865" y="0" height="439"/></clipPath><clipPath id="441c704659"><path d="M 0.238281 0.117188 L 864.460938 0.117188 L 864.460938 438.867188 L 0.238281 438.867188 Z M 0.238281 0.117188 " clip-rule="nonzero"/></clipPath><clipPath id="a8d64c5ef0"><rect x="0" width="865" y="0" height="439"/></clipPath></defs><g clip-path="url(#ed7e8e5d5e)"><g transform="matrix(1, 0, 0, 1, 0.000000000000000028, 3)"><g clip-path="url(#a6b264b572)"><g clip-path="url(#472ed5fabb)"><path fill="#ffdd30" d="M 848.132812 124.925781 L 476.054688 6.925781 C 447.441406 -2.117188 417.253906 -2.117188 388.675781 6.925781 L 16.132812 125.078125 C 6.472656 128.441406 0.238281 137.207031 0.238281 147.394531 C 0.238281 157.578125 6.472656 166.3125 16.566406 169.863281 L 223.453125 235.484375 L 223.453125 389.253906 C 223.453125 395.703125 227.46875 401.472656 233.515625 403.726562 C 296.976562 427.277344 363.859375 439.191406 432.347656 439.191406 C 500.839844 439.191406 567.722656 427.246094 631.179688 403.726562 C 637.230469 401.503906 641.242188 395.703125 641.242188 389.253906 L 641.242188 291.871094 C 641.242188 283.355469 634.328125 276.441406 625.808594 276.441406 C 617.292969 276.441406 610.378906 283.355469 610.378906 291.871094 L 610.378906 378.417969 C 496.394531 418.140625 368.304688 418.140625 254.320312 378.417969 L 254.320312 245.296875 L 388.675781 287.890625 C 402.964844 292.398438 417.65625 294.683594 432.347656 294.683594 C 447.039062 294.683594 461.761719 292.429688 476.054688 287.890625 L 674.238281 224.957031 L 674.238281 423.789062 C 674.238281 432.308594 681.152344 439.222656 689.671875 439.222656 C 698.1875 439.222656 705.101562 432.308594 705.101562 423.789062 L 705.101562 203.875 C 705.101562 203.507812 704.792969 203.257812 704.792969 202.890625 C 704.703125 201.65625 704.792969 200.449219 704.394531 199.214844 C 703.960938 197.859375 703.15625 196.777344 702.417969 195.636719 C 702.171875 195.265625 702.046875 194.863281 701.769531 194.492188 C 700.011719 192.242188 697.695312 190.699219 695.070312 189.679688 C 694.761719 189.554688 694.640625 189.246094 694.300781 189.125 L 437.007812 107.546875 C 428.953125 105.046875 420.21875 109.460938 417.65625 117.578125 C 415.09375 125.726562 419.570312 134.398438 427.71875 136.960938 L 638.648438 203.847656 L 466.730469 258.445312 C 444.230469 265.546875 420.464844 265.546875 398.027344 258.445312 L 47.832031 147.394531 L 397.996094 36.339844 C 420.464844 29.242188 444.230469 29.242188 466.703125 36.339844 L 816.863281 147.394531 L 749.457031 168.785156 C 741.339844 171.375 736.832031 180.019531 739.425781 188.167969 C 741.984375 196.285156 750.628906 200.789062 758.808594 198.199219 L 848.5625 169.679688 C 858.222656 166.3125 864.457031 157.546875 864.457031 147.363281 C 864.457031 137.175781 858.222656 128.441406 848.132812 124.894531 Z M 848.132812 124.925781 " fill-opacity="1" fill-rule="nonzero"/><path fill="#ffdd30" d="M 848.132812 124.925781 L 476.054688 6.925781 C 447.441406 -2.117188 417.253906 -2.117188 388.675781 6.925781 L 16.132812 125.078125 C 6.472656 128.441406 0.238281 137.207031 0.238281 147.394531 C 0.238281 157.578125 6.472656 166.3125 16.566406 169.863281 L 223.453125 235.484375 L 223.453125 389.253906 C 223.453125 395.703125 227.46875 401.472656 233.515625 403.726562 C 296.976562 427.277344 363.859375 439.191406 432.347656 439.191406 C 500.839844 439.191406 567.722656 427.246094 631.179688 403.726562 C 637.230469 401.503906 641.242188 395.703125 641.242188 389.253906 L 641.242188 291.871094 C 641.242188 283.355469 634.328125 276.441406 625.808594 276.441406 C 617.292969 276.441406 610.378906 283.355469 610.378906 291.871094 L 610.378906 378.417969 C 496.394531 418.140625 368.304688 418.140625 254.320312 378.417969 L 254.320312 245.296875 L 388.675781 287.890625 C 402.964844 292.398438 417.65625 294.683594 432.347656 294.683594 C 447.039062 294.683594 461.761719 292.429688 476.054688 287.890625 L 674.238281 224.957031 L 674.238281 423.789062 C 674.238281 432.308594 681.152344 439.222656 689.671875 439.222656 C 698.1875 439.222656 705.101562 432.308594 705.101562 423.789062 L 705.101562 203.875 C 705.101562 203.507812 704.792969 203.257812 704.792969 202.890625 C 704.703125 201.65625 704.792969 200.449219 704.394531 199.214844 C 703.960938 197.859375 703.15625 196.777344 702.417969 195.636719 C 702.171875 195.265625 702.046875 194.863281 701.769531 194.492188 C 700.011719 192.242188 697.695312 190.699219 695.070312 189.679688 C 694.761719 189.554688 694.640625 189.246094 694.300781 189.125 L 437.007812 107.546875 C 428.953125 105.046875 420.21875 109.460938 417.65625 117.578125 C 415.09375 125.726562 419.570312 134.398438 427.71875 136.960938 L 638.648438 203.847656 L 466.730469 258.445312 C 444.230469 265.546875 420.464844 265.546875 398.027344 258.445312 L 47.832031 147.394531 L 397.996094 36.339844 C 420.464844 29.242188 444.230469 29.242188 466.703125 36.339844 L 816.863281 147.394531 L 749.457031 168.785156 C 741.339844 171.375 736.832031 180.019531 739.425781 188.167969 C 741.984375 196.285156 750.628906 200.789062 758.808594 198.199219 L 848.5625 169.679688 C 858.222656 166.3125 864.457031 157.546875 864.457031 147.363281 C 864.457031 137.175781 858.222656 128.441406 848.132812 124.894531 Z M 848.132812 124.925781 " fill-opacity="1" fill-rule="nonzero"/></g></g></g><g transform="matrix(1, 0, 0, 1, 0.000000000000000028, 3)"><g clip-path="url(#a8d64c5ef0)"><g clip-path="url(#441c704659)"><path fill="#ffdd30" d="M 848.132812 124.925781 L 476.054688 6.925781 C 447.441406 -2.117188 417.253906 -2.117188 388.675781 6.925781 L 16.132812 125.078125 C 6.472656 128.441406 0.238281 137.207031 0.238281 147.394531 C 0.238281 157.578125 6.472656 166.3125 16.566406 169.863281 L 223.453125 235.484375 L 223.453125 389.253906 C 223.453125 395.703125 227.46875 401.472656 233.515625 403.726562 C 296.976562 427.277344 363.859375 439.191406 432.347656 439.191406 C 500.839844 439.191406 567.722656 427.246094 631.179688 403.726562 C 637.230469 401.503906 641.242188 395.703125 641.242188 389.253906 L 641.242188 291.871094 C 641.242188 283.355469 634.328125 276.441406 625.808594 276.441406 C 617.292969 276.441406 610.378906 283.355469 610.378906 291.871094 L 610.378906 378.417969 C 496.394531 418.140625 368.304688 418.140625 254.320312 378.417969 L 254.320312 245.296875 L 388.675781 287.890625 C 402.964844 292.398438 417.65625 294.683594 432.347656 294.683594 C 447.039062 294.683594 461.761719 292.429688 476.054688 287.890625 L 674.238281 224.957031 L 674.238281 423.789062 C 674.238281 432.308594 681.152344 439.222656 689.671875 439.222656 C 698.1875 439.222656 705.101562 432.308594 705.101562 423.789062 L 705.101562 203.875 C 705.101562 203.507812 704.792969 203.257812 704.792969 202.890625 C 704.703125 201.65625 704.792969 200.449219 704.394531 199.214844 C 703.960938 197.859375 703.15625 196.777344 702.417969 195.636719 C 702.171875 195.265625 702.046875 194.863281 701.769531 194.492188 C 700.011719 192.242188 697.695312 190.699219 695.070312 189.679688 C 694.761719 189.554688 694.640625 189.246094 694.300781 189.125 L 437.007812 107.546875 C 428.953125 105.046875 420.21875 109.460938 417.65625 117.578125 C 415.09375 125.726562 419.570312 134.398438 427.71875 136.960938 L 638.648438 203.847656 L 466.730469 258.445312 C 444.230469 265.546875 420.464844 265.546875 398.027344 258.445312 L 47.832031 147.394531 L 397.996094 36.339844 C 420.464844 29.242188 444.230469 29.242188 466.703125 36.339844 L 816.863281 147.394531 L 749.457031 168.785156 C 741.339844 171.375 736.832031 180.019531 739.425781 188.167969 C 741.984375 196.285156 750.628906 200.789062 758.808594 198.199219 L 848.5625 169.679688 C 858.222656 166.3125 864.457031 157.546875 864.457031 147.363281 C 864.457031 137.175781 858.222656 128.441406 848.132812 124.894531 Z M 848.132812 124.925781 " fill-opacity="1" fill-rule="nonzero"/><path fill="#ffdd30" d="M 848.132812 124.925781 L 476.054688 6.925781 C 447.441406 -2.117188 417.253906 -2.117188 388.675781 6.925781 L 16.132812 125.078125 C 6.472656 128.441406 0.238281 137.207031 0.238281 147.394531 C 0.238281 157.578125 6.472656 166.3125 16.566406 169.863281 L 223.453125 235.484375 L 223.453125 389.253906 C 223.453125 395.703125 227.46875 401.472656 233.515625 403.726562 C 296.976562 427.277344 363.859375 439.191406 432.347656 439.191406 C 500.839844 439.191406 567.722656 427.246094 631.179688 403.726562 C 637.230469 401.503906 641.242188 395.703125 641.242188 389.253906 L 641.242188 291.871094 C 641.242188 283.355469 634.328125 276.441406 625.808594 276.441406 C 617.292969 276.441406 610.378906 283.355469 610.378906 291.871094 L 610.378906 378.417969 C 496.394531 418.140625 368.304688 418.140625 254.320312 378.417969 L 254.320312 245.296875 L 388.675781 287.890625 C 402.964844 292.398438 417.65625 294.683594 432.347656 294.683594 C 447.039062 294.683594 461.761719 292.429688 476.054688 287.890625 L 674.238281 224.957031 L 674.238281 423.789062 C 674.238281 432.308594 681.152344 439.222656 689.671875 439.222656 C 698.1875 439.222656 705.101562 432.308594 705.101562 423.789062 L 705.101562 203.875 C 705.101562 203.507812 704.792969 203.257812 704.792969 202.890625 C 704.703125 201.65625 704.792969 200.449219 704.394531 199.214844 C 703.960938 197.859375 703.15625 196.777344 702.417969 195.636719 C 702.171875 195.265625 702.046875 194.863281 701.769531 194.492188 C 700.011719 192.242188 697.695312 190.699219 695.070312 189.679688 C 694.761719 189.554688 694.640625 189.246094 694.300781 189.125 L 437.007812 107.546875 C 428.953125 105.046875 420.21875 109.460938 417.65625 117.578125 C 415.09375 125.726562 419.570312 134.398438 427.71875 136.960938 L 638.648438 203.847656 L 466.730469 258.445312 C 444.230469 265.546875 420.464844 265.546875 398.027344 258.445312 L 47.832031 147.394531 L 397.996094 36.339844 C 420.464844 29.242188 444.230469 29.242188 466.703125 36.339844 L 816.863281 147.394531 L 749.457031 168.785156 C 741.339844 171.375 736.832031 180.019531 739.425781 188.167969 C 741.984375 196.285156 750.628906 200.789062 758.808594 198.199219 L 848.5625 169.679688 C 858.222656 166.3125 864.457031 157.546875 864.457031 147.363281 C 864.457031 137.175781 858.222656 128.441406 848.132812 124.894531 Z M 848.132812 124.925781 " fill-opacity="1" fill-rule="nonzero"/></g></g></g></g></svg>