<svg xmlns="http://www.w3.org/2000/svg" xmlns:xlink="http://www.w3.org/1999/xlink" width="338" zoomAndPan="magnify" viewBox="0 0 253.5 297.749991" height="397" preserveAspectRatio="xMidYMid meet" version="1.0"><defs><clipPath id="57565f17a9"><path d="M 0 0.167969 L 253 0.167969 L 253 296.582031 L 0 296.582031 Z M 0 0.167969 " clip-rule="nonzero"/></clipPath></defs><g clip-path="url(#57565f17a9)"><path fill="#3a8af5" d="M 235.929688 163.464844 L 235.929688 118.082031 L 226.351562 121.777344 L 209.316406 105 L 195.1875 114.324219 C 187.867188 104.667969 176.277344 96.792969 162.144531 91.804688 C 172.601562 82.160156 179.199219 68.402344 179.199219 53.089844 C 179.199219 24.011719 155.546875 0.355469 126.472656 0.355469 C 97.394531 0.355469 73.742188 24.007812 73.742188 53.082031 C 73.742188 68.375 80.324219 82.121094 90.757812 91.761719 C 76.597656 96.75 65.023438 104.613281 57.703125 114.28125 L 43.628906 104.992188 L 26.59375 121.769531 L 17.011719 118.082031 L 17.011719 163.464844 C 7.289062 166.097656 0.0234375 176.128906 0.0234375 188.09375 C 0.0234375 200.058594 7.289062 210.089844 17.011719 212.71875 L 17.011719 254.484375 L 126.472656 296.714844 L 235.929688 254.480469 L 235.929688 212.71875 C 245.652344 210.089844 252.921875 200.058594 252.921875 188.09375 C 252.917969 176.125 245.652344 166.09375 235.929688 163.464844 Z M 208.050781 117.921875 L 216.015625 125.765625 L 168.242188 144.195312 Z M 83.835938 53.085938 C 83.835938 29.574219 102.960938 10.445312 126.472656 10.445312 C 149.984375 10.445312 169.109375 29.574219 169.109375 53.082031 C 169.109375 76.589844 149.984375 95.722656 126.472656 95.722656 C 102.960938 95.722656 83.835938 76.597656 83.835938 53.085938 Z M 44.890625 117.921875 L 84.699219 144.195312 L 36.925781 125.765625 Z M 10.117188 188.089844 C 10.117188 179.6875 15.476562 172.859375 22.0625 172.859375 C 28.648438 172.859375 34.007812 179.691406 34.007812 188.089844 C 34.007812 196.492188 28.652344 203.320312 22.0625 203.320312 C 15.472656 203.324219 10.117188 196.492188 10.117188 188.089844 Z M 121.425781 283.953125 L 27.105469 247.5625 L 27.105469 212.746094 C 27.214844 212.714844 27.316406 212.660156 27.425781 212.625 C 29.625 211.988281 31.691406 210.976562 33.574219 209.640625 C 33.722656 209.539062 33.875 209.441406 34.019531 209.332031 C 34.90625 208.671875 35.746094 207.933594 36.539062 207.136719 C 36.6875 206.988281 36.832031 206.832031 36.976562 206.679688 C 37.757812 205.84375 38.507812 204.960938 39.179688 204.007812 C 39.25 203.90625 39.3125 203.796875 39.382812 203.691406 C 40.03125 202.746094 40.617188 201.746094 41.144531 200.703125 C 41.203125 200.582031 41.269531 200.472656 41.324219 200.355469 C 41.847656 199.277344 42.289062 198.144531 42.667969 196.976562 C 42.738281 196.757812 42.8125 196.539062 42.878906 196.316406 C 43.230469 195.152344 43.511719 193.949219 43.710938 192.71875 C 43.742188 192.511719 43.765625 192.300781 43.792969 192.085938 C 43.976562 190.785156 44.09375 189.457031 44.09375 188.09375 C 44.09375 186.734375 43.972656 185.40625 43.792969 184.101562 C 43.765625 183.890625 43.742188 183.679688 43.710938 183.46875 C 43.511719 182.234375 43.230469 181.035156 42.878906 179.871094 C 42.8125 179.648438 42.738281 179.429688 42.667969 179.207031 C 42.289062 178.042969 41.847656 176.910156 41.328125 175.835938 C 41.269531 175.714844 41.199219 175.601562 41.140625 175.484375 C 40.617188 174.4375 40.03125 173.445312 39.386719 172.5 C 39.316406 172.394531 39.25 172.28125 39.175781 172.175781 C 38.503906 171.222656 37.757812 170.339844 36.976562 169.507812 C 36.832031 169.351562 36.6875 169.199219 36.535156 169.046875 C 35.746094 168.25 34.90625 167.511719 34.019531 166.855469 C 33.871094 166.746094 33.714844 166.644531 33.570312 166.539062 C 31.6875 165.207031 29.625 164.195312 27.425781 163.5625 C 27.316406 163.527344 27.214844 163.464844 27.101562 163.4375 L 27.101562 132.789062 L 121.425781 169.179688 Z M 66.136719 119.855469 C 73.410156 110.535156 85.785156 103.199219 100.976562 99.207031 C 108.539062 103.40625 117.226562 105.816406 126.472656 105.816406 C 135.71875 105.816406 144.402344 103.40625 151.96875 99.207031 C 167.09375 103.1875 179.480469 110.566406 186.765625 119.882812 L 126.472656 159.671875 Z M 225.839844 247.5625 L 131.515625 283.953125 L 131.515625 169.179688 L 225.839844 132.789062 L 225.839844 163.464844 C 216.113281 166.097656 208.847656 176.128906 208.847656 188.09375 C 208.847656 200.0625 216.113281 210.089844 225.839844 212.71875 Z M 230.882812 203.324219 C 224.296875 203.324219 218.9375 196.492188 218.9375 188.09375 C 218.9375 179.691406 224.292969 172.859375 230.882812 172.859375 C 237.472656 172.859375 242.832031 179.695312 242.832031 188.09375 C 242.828125 196.492188 237.46875 203.324219 230.882812 203.324219 Z M 230.882812 203.324219 " fill-opacity="1" fill-rule="nonzero"/></g></svg>